Coordinates
version=1
nRows=26
nColumns=24
inDegrees=yes

Units are S.I. units (second, meters, Newtons, ...)
Angles are in degrees.

endheader
time	pelvis_tilt	pelvis_list	pelvis_rotation	pelvis_tx	pelvis_ty	pelvis_tz	hip_flexion_r	hip_adduction_r	hip_rotation_r	knee_angle_r	ankle_angle_r	subtalar_angle_r	mtp_angle_r	hip_flexion_l	hip_adduction_l	hip_rotation_l	knee_angle_l	ankle_angle_l	subtalar_angle_l	mtp_angle_l	lumbar_extension	lumbar_bending	lumbar_rotation
      0.68316667	      2.65792001	     -5.81578479	      2.93987300	     -0.46552448	      1.00328016	      0.30875144	      7.08540959	     11.53849206	      0.82535088	    -14.89487661	      3.47673392	    -16.96294621	     -4.17086165	     19.15302725	     -5.83638363	      0.88237876	    -71.68206958	     -5.92348889	     -8.52483173	      2.47848309	     -3.97343438	      9.68320417	      1.40756383
      0.68733333	      2.65111810	     -5.67050560	      2.87974614	     -0.46024024	      1.00417691	      0.30886436	      6.51981118	     11.40037542	      0.92389554	    -14.48977376	      3.57125112	    -16.88034434	     -4.17986845	     19.75440444	     -5.60665264	      0.91506043	    -71.40653032	     -5.32212927	     -8.84577630	      2.44049819	     -3.97579774	      9.53343350	      1.47159112
      0.69150000	      2.71746457	     -5.53000585	      2.79770726	     -0.45496450	      1.00515432	      0.30902839	      5.86536305	     11.27496267	      1.05762792	    -14.06098312	      3.61169894	    -16.76347386	     -4.20219989	     20.24344921	     -5.40557732	      0.90777928	    -71.05038693	     -4.73832211	     -9.19796219	      2.35392962	     -4.11428510	      9.34537565	      1.61167891
      0.69566667	      2.77326475	     -5.38362880	      2.71666770	     -0.44966540	      1.00608791	      0.30915048	      5.21228487	     11.13693431	      1.20148585	    -13.61434705	      3.67700982	    -16.65602596	     -4.23936067	     20.71758250	     -5.19176045	      0.90575273	    -70.62022287	     -4.19424359	     -9.47783453	      2.21386218	     -4.21072898	      9.19770952	      1.80293549
      0.69983333	      2.74548696	     -5.24271437	      2.60915355	     -0.44440642	      1.00683135	      0.30930034	      4.68725449	     10.99890380	      1.33816827	    -13.24171038	      3.75870265	    -16.56898718	     -4.25361381	     21.27092614	     -4.98826441	      0.88144753	    -70.15027179	     -3.59990263	     -9.75268112	      2.16045747	     -4.21776810	      9.04019348	      1.88223328
      0.70400000	      2.81030582	     -5.09791602	      2.50213526	     -0.43910448	      1.00770167	      0.30946558	      4.02632884	     10.86176912	      1.50962065	    -12.79823518	      3.81948391	    -16.46803957	     -4.29536509	     21.68579877	     -4.80018580	      0.83631287	    -69.58922485	     -3.07813386	     -9.98328759	      2.01323270	     -4.33360369	      8.87230972	      2.10725465
      0.70816667	      2.78571304	     -4.95756737	      2.36961546	     -0.43385443	      1.00834795	      0.30964162	      3.50631687	     10.72109822	      1.66885878	    -12.43996744	      3.90003146	    -16.37541422	     -4.31263975	     22.18960606	     -4.61751555	      0.77506643	    -68.99640903	     -2.50280549	    -10.20852403	      1.95193481	     -4.35424998	      8.70867220	      2.19833945
      0.71233333	      2.80357602	     -4.80822298	      2.22245099	     -0.42855834	      1.00904770	      0.30981912	      2.92562870	     10.56853881	      1.84080715	    -12.05784466	      3.97229945	    -16.27667916	     -4.33863699	     22.60508993	     -4.44088441	      0.68154713	    -68.31435140	     -1.97550049	    -10.39880198	      1.86222246	     -4.39825564	      8.54922379	      2.36883219
      0.71650000	      2.77546718	     -4.69140622	      2.06504380	     -0.42329733	      1.00959735	      0.31004461	      2.39009464	     10.45719112	      2.09070280	    -11.65882157	      4.03746281	    -16.29499152	     -4.65784301	     23.06858737	     -4.30778049	      0.59350953	    -67.60481610	     -1.46652710	    -10.51742037	      0.82601680	     -4.41909828	      8.40596967	      2.83262668
      0.72066667	      2.82475348	     -4.55131325	      1.93766250	     -0.41800678	      1.01022330	      0.31018732	      1.77885838	     10.30623393	      2.22765690	    -11.27268867	      4.13473675	    -16.14561773	     -4.69092773	     23.41310752	     -4.14200173	      0.51528612	    -66.81125732	     -0.97375083	    -10.65993721	      0.72900677	     -4.51589222	      8.24682303	      2.82167768
      0.72483333	      2.83071886	     -4.42209205	      1.78014730	     -0.41273857	      1.01071948	      0.31036304	      1.22823907	     10.16545100	      2.40461145	    -10.91205065	      4.21893448	    -16.03083631	     -4.73088013	     23.78648796	     -4.00011426	      0.41282394	    -65.97167362	     -0.50378195	    -10.77073519	      0.60972587	     -4.56743324	      8.10404587	      3.00213588
      0.72900000	      2.76325633	     -4.31287190	      1.60741741	     -0.40749698	      1.01103110	      0.31054984	      0.78155825	     10.04109477	      2.58161625	    -10.59401394	      4.30265610	    -15.93928036	     -4.75004576	     24.22897964	     -3.88280254	      0.30651534	    -65.09562782	     -0.04283475	    -10.86908677	      0.54876951	     -4.53010772	      7.98363980	      3.10815174
      0.73316667	      2.79301518	     -4.19536793	      1.45439646	     -0.40221369	      1.01143982	      0.31072397	      0.20171966	      9.90879981	      2.75931061	    -10.22157612	      4.40002258	    -15.84502943	     -4.79089133	     24.53380093	     -3.76409184	      0.19982509	    -64.14828708	      0.35975552	    -10.93052478	      0.41829564	     -4.60665692	      7.84175695	      3.35936267
      0.73733333	      2.74291306	     -4.09721973	      1.28082933	     -0.39695255	      1.01167601	      0.31092385	     -0.26703465	      9.79319856	      2.94249537	     -9.89250284	      4.48763599	    -15.76686304	     -4.82620549	     24.91165016	     -3.67426255	      0.08046922	    -63.16044428	      0.74760592	    -10.97876202	      0.30344683	     -4.58639080	      7.72628206	      3.52341142
      0.74150000	      2.73219777	     -4.00272559	      1.12456117	     -0.39170587	      1.01190956	      0.31106946	     -0.78160098	      9.67804594	      3.12275621	     -9.55230940	      4.58183795	    -15.69143102	     -4.87262943	     25.22493992	     -3.57529087	     -0.01059216	    -62.11617505	      1.09891943	    -11.01120579	      0.15075082	     -4.62242804	      7.62594423	      3.73076439
      0.74566667	      2.65888202	     -3.91303064	      0.95013484	     -0.38646863	      1.01198913	      0.31124251	     -1.20204470	      9.56458405	      3.29602136	     -9.26336430	      4.67485526	    -15.59984119	     -4.89203058	     25.58740004	     -3.48921063	     -0.11581168	    -61.02914365	      1.43008984	    -11.03301177	      0.07993405	     -4.57801990	      7.52757900	      3.82255525
      0.74983333	      2.66455143	     -3.84342656	      0.80911541	     -0.38121379	      1.01211930	      0.31138145	     -1.73546352	      9.47259638	      3.45790713	     -8.91272069	      4.77656489	    -15.52664048	     -4.93973905	     25.84676003	     -3.42356365	     -0.20001279	    -59.89429469	      1.71463715	    -11.02078501	     -0.08283960	     -4.63087860	      7.45014752	      4.06257868
      0.75400000	      2.59051533	     -3.76396884	      0.63660156	     -0.37597689	      1.01210164	      0.31154653	     -2.14749836	      9.36558262	      3.62539567	     -8.63360615	      4.87443661	    -15.43914839	     -4.96052633	     26.16413466	     -3.35462545	     -0.30719939	    -58.70254050	      1.97434860	    -11.00536678	     -0.16012787	     -4.58103042	      7.36125057	      4.15122797
      0.75816667	      2.57248398	     -3.70106993	      0.48697089	     -0.37072882	      1.01210099	      0.31168975	     -2.63264873	      9.27591454	      3.77437356	     -8.32594887	      4.98031955	    -15.35834212	     -4.98930300	     26.40273883	     -3.30191534	     -0.40011740	    -57.46830144	      2.19491361	    -10.96651788	     -0.26431816	     -4.59643006	      7.28617227	      4.31219378
      0.76233333	      2.53790701	     -3.64556357	      0.35077073	     -0.36549106	      1.01202442	      0.31181614	     -3.09493819	      9.19333034	      3.91380161	     -8.02316056	      5.09078284	    -15.28080412	     -5.01753582	     26.64125936	     -3.24956356	     -0.47096666	    -56.18883394	      2.38367857	    -10.91367179	     -0.36499266	     -4.59461064	      7.21906164	      4.45056627
      0.76650000	      2.51409023	     -3.60232025	      0.22656733	     -0.36023915	      1.01191150	      0.31192030	     -3.57442510	      9.12196125	      4.03441485	     -7.70754394	      5.20716487	    -15.21652996	     -5.06022644	     26.84866782	     -3.21180909	     -0.54314435	    -54.86880749	      2.53890211	    -10.84357006	     -0.50639562	     -4.60902424	      7.17511481	      4.62154777
      0.77066667	      2.42928466	     -3.56481204	      0.09631735	     -0.35503670	      1.01165209	      0.31202172	     -3.95851836	      9.05703754	      4.16706342	     -7.44788793	      5.32594032	    -15.13921099	     -5.08083063	     27.10400969	     -3.16961662	     -0.58755186	    -53.50910970	      2.67354436	    -10.74377090	     -0.57834780	     -4.56239853	      7.13804807	      4.69513342
      0.77483333	      2.40065950	     -3.53018503	     -0.02543947	     -0.34978436	      1.01144089	      0.31212969	     -4.41765174	      8.99434486	      4.27283518	     -7.16325240	      5.45566488	    -15.07278478	     -5.11231533	     27.26745897	     -3.14473205	     -0.66105364	    -52.09723412	      2.77226242	    -10.63211102	     -0.67661129	     -4.55740310	      7.09441708	      4.82100061
      0.77900000	      2.36197774	     -3.51508998	     -0.13064702	     -0.34456671	      1.01115004	      0.31220859	     -4.85385466	      8.95456810	      4.37695760	     -6.89981651	      5.58700843	    -15.00293677	     -5.14065788	     27.42707981	     -3.12398208	     -0.68916543	    -50.65380115	      2.85159132	    -10.49459512	     -0.76024718	     -4.54719351	      7.07004876	      4.91883140
      0.78316667	      2.36339924	     -3.49156060	     -0.21983689	     -0.33930184	      1.01089304	      0.31226602	     -5.35012313	      8.90321614	      4.44336941	     -6.60188821	      5.72888783	    -14.93617148	     -5.19486050	     27.51214461	     -3.09661450	     -0.73323397	    -49.16137906	      2.89324806	    -10.36524811	     -0.90118218	     -4.58205553	      7.05125764	      5.06344158
      0.78733333	      2.24063243	     -3.50605251	     -0.29514588	     -0.33407342	      1.01037943	      0.31228885	     -5.68722746	      8.89674060	      4.51046790	     -6.35024300	      5.88034484	    -14.86493940	     -5.20666448	     27.73344335	     -3.09232157	     -0.72385468	    -47.66835282	      2.92317321	    -10.18124710	     -0.93757624	     -4.46751941	      7.07471590	      5.09590991
